<svg width="24" height="24" viewBox="0 0 24 24" fill="none" xmlns="http://www.w3.org/2000/svg">
<path d="M19.5217 2H5.47826C5.08626 2 4.71024 2.14532 4.43292 2.40394C4.15575 2.66272 4 3.01356 4 3.37931V20.6207C4 20.9865 4.15575 21.3373 4.43292 21.5961C4.71026 21.8547 5.08627 22 5.47826 22H19.5217C19.9137 22 20.2898 21.8547 20.5671 21.5961C20.8443 21.3373 21 20.9864 21 20.6207V3.37931C21 3.01355 20.8443 2.6627 20.5671 2.40394C20.2897 2.14532 19.9137 2 19.5217 2ZM5.47826 20.6207V3.37931H19.5217V20.6207H5.47826ZM18.413 6.82759C18.413 7.01047 18.3352 7.18596 18.1966 7.31527C18.058 7.44458 17.8699 7.51724 17.6739 7.51724H11.0217C10.7576 7.51724 10.5136 7.38578 10.3816 7.17241C10.2496 6.95905 10.2496 6.69612 10.3816 6.48276C10.5136 6.2694 10.7576 6.13793 11.0217 6.13793H17.6739C17.8699 6.13793 18.058 6.21059 18.1966 6.3399C18.3352 6.46921 18.413 6.64471 18.413 6.82759ZM8.80435 12C8.80435 12.2743 8.68754 12.5376 8.47966 12.7315C8.27178 12.9254 7.98964 13.0345 7.69567 13.0345C7.40171 13.0345 7.11953 12.9255 6.91169 12.7315C6.70385 12.5375 6.587 12.2743 6.587 12C6.587 11.7257 6.70381 11.4624 6.91169 11.2685C7.11957 11.0746 7.40171 10.9655 7.69567 10.9655C7.98964 10.9655 8.27182 11.0745 8.47966 11.2685C8.6875 11.4625 8.80435 11.7257 8.80435 12ZM8.80435 17.1724C8.80435 17.4467 8.68754 17.71 8.47966 17.9039C8.27178 18.0979 7.98964 18.2069 7.69567 18.2069C7.40171 18.2069 7.11953 18.0979 6.91169 17.9039C6.70385 17.71 6.587 17.4467 6.587 17.1724C6.587 16.8981 6.70381 16.6348 6.91169 16.4409C7.11957 16.247 7.40171 16.1379 7.69567 16.1379C7.98964 16.1379 8.27182 16.2469 8.47966 16.4409C8.6875 16.6349 8.80435 16.8981 8.80435 17.1724ZM8.80435 6.82759C8.80435 7.10191 8.68754 7.36516 8.47966 7.55909C8.27178 7.75302 7.98964 7.86205 7.69567 7.86205C7.40171 7.86205 7.11953 7.75306 6.91169 7.55909C6.70385 7.36513 6.587 7.10187 6.587 6.82759C6.587 6.5533 6.70381 6.29001 6.91169 6.09608C7.11957 5.90215 7.40171 5.79312 7.69567 5.79312C7.98964 5.79312 8.27182 5.90211 8.47966 6.09608C8.6875 6.29005 8.80435 6.5533 8.80435 6.82759ZM18.413 12C18.413 12.1829 18.3352 12.3584 18.1966 12.4877C18.058 12.617 17.8699 12.6897 17.6739 12.6897H11.0217C10.7576 12.6897 10.5136 12.5582 10.3816 12.3448C10.2496 12.1315 10.2496 11.8685 10.3816 11.6552C10.5136 11.4418 10.7576 11.3103 11.0217 11.3103H17.6739C17.8699 11.3103 18.058 11.383 18.1966 11.5123C18.3352 11.6416 18.413 11.8171 18.413 12ZM18.413 17.1724C18.413 17.3553 18.3352 17.5308 18.1966 17.6601C18.058 17.7894 17.8699 17.8621 17.6739 17.8621H11.0217C10.7576 17.8621 10.5136 17.7306 10.3816 17.5172C10.2496 17.3039 10.2496 17.0409 10.3816 16.8276C10.5136 16.6142 10.7576 16.4828 11.0217 16.4828H17.6739C17.8699 16.4828 18.058 16.5554 18.1966 16.6847C18.3352 16.814 18.413 16.9895 18.413 17.1724Z" fill="#53514D"/>
</svg>
