<svg width="24" height="24" viewBox="0 0 24 24" fill="none" xmlns="http://www.w3.org/2000/svg">
<g clip-path="url(#clip0_1006_154)">
<path d="M16.3072 5.32665L12.7738 8.82976C12.3816 9.2186 11.7484 9.21587 11.3596 8.82367L7.85649 5.29031C7.46765 4.89811 6.83449 4.89539 6.44229 5.28423L5.38575 6.33172C4.99355 6.72056 4.99083 7.35372 5.37967 7.74592L8.88277 11.2793C9.27161 11.6715 9.26889 12.3046 8.87669 12.6935L5.34333 16.1966C4.95113 16.5854 4.9484 17.2186 5.33724 17.6108L6.38474 18.6673C6.77358 19.0595 7.40674 19.0623 7.79894 18.6734L11.3323 15.1703C11.7245 14.7815 12.3577 14.7842 12.7465 15.1764L16.2496 18.7098C16.6384 19.102 17.2716 19.1047 17.6638 18.7158L18.7203 17.6683C19.1125 17.2795 19.1153 16.6463 18.7264 16.2541L15.2233 12.7208C14.8345 12.3286 14.8372 11.6954 15.2294 11.3066L18.7628 7.80347C19.155 7.41463 19.1577 6.78147 18.7689 6.38928L17.7214 5.33273C17.3325 4.94053 16.6994 4.93781 16.3072 5.32665Z" stroke="#53514D" stroke-width="1.2"/>
</g>
<defs>
<clipPath id="clip0_1006_154">
<rect width="24" height="24" fill="white"/>
</clipPath>
</defs>
</svg>
