<svg width="158" height="75" viewBox="0 0 158 75" fill="none" xmlns="http://www.w3.org/2000/svg">
    <path d="M130.846 58.4389C120.011 69.2739 97 64.5 92 49C87.5 31 97.3162 30.5803 108.151 19.7453C118.283 7.36821 124.861 5.23633 136.166 10.5566C149.105 19.5217 141.681 47.604 130.846 58.4389Z" fill="#EEDDEA"/>
    <path d="M45.4809 58L46.8461 51.5781H47.643L47.4906 52.8203H47.5492C47.7133 52.5977 47.8891 52.3828 48.0766 52.1758C48.2641 51.9648 48.477 51.793 48.7152 51.6602C48.9574 51.5273 49.2348 51.4609 49.5473 51.4609C49.6645 51.4609 49.7836 51.4688 49.9047 51.4844C50.0258 51.4961 50.1391 51.5176 50.2445 51.5488L50.0336 52.4219C49.9281 52.3984 49.8246 52.3809 49.723 52.3691C49.6254 52.3574 49.5238 52.3516 49.4184 52.3516C49.1215 52.3516 48.8461 52.4297 48.5922 52.5859C48.3383 52.7383 48.1098 52.9434 47.9066 53.2012C47.7074 53.459 47.5375 53.7461 47.3969 54.0625C47.2602 54.3789 47.1566 54.7012 47.0863 55.0293L46.4594 58H45.4809ZM53.3992 58.1172C52.9188 58.1172 52.5047 58.0215 52.157 57.8301C51.8094 57.6348 51.5418 57.3574 51.3543 56.998C51.1707 56.6348 51.0789 56.2012 51.0789 55.6973C51.0789 55.1777 51.1531 54.668 51.3016 54.168C51.4539 53.6641 51.6707 53.209 51.952 52.8027C52.2332 52.3926 52.5711 52.0664 52.9656 51.8242C53.3641 51.582 53.8094 51.4609 54.3016 51.4609C54.8914 51.4609 55.3387 51.5938 55.6434 51.8594C55.948 52.1211 56.1004 52.4824 56.1004 52.9434C56.1004 53.2676 56.0242 53.5664 55.8719 53.8398C55.7234 54.1133 55.493 54.3516 55.1805 54.5547C54.8719 54.7539 54.4793 54.9102 54.0027 55.0234C53.5301 55.1328 52.9695 55.1875 52.3211 55.1875H52.0984C52.0906 55.2578 52.0828 55.3359 52.075 55.4219C52.0711 55.5078 52.0691 55.5879 52.0691 55.6621C52.0691 56.1777 52.1941 56.582 52.4441 56.875C52.6941 57.1641 53.0691 57.3086 53.5691 57.3086C53.8777 57.3086 54.1688 57.2656 54.4422 57.1797C54.7195 57.0898 55.0086 56.9727 55.3094 56.8281V57.666C55.0203 57.7988 54.7293 57.9082 54.4363 57.9941C54.1434 58.0762 53.7977 58.1172 53.3992 58.1172ZM52.2391 54.3906H52.3797C52.8797 54.3906 53.3387 54.3477 53.7566 54.2617C54.1746 54.1719 54.5105 54.0273 54.7645 53.8281C55.0184 53.625 55.1453 53.3555 55.1453 53.0195C55.1453 52.8008 55.0711 52.6211 54.9227 52.4805C54.7742 52.3398 54.5477 52.2695 54.243 52.2695C53.9734 52.2695 53.7078 52.3535 53.4461 52.5215C53.1844 52.6855 52.9461 52.9258 52.7313 53.2422C52.5203 53.5586 52.3563 53.9414 52.2391 54.3906ZM58.9328 58.1172C58.5422 58.1172 58.1984 58.0781 57.9016 58C57.6086 57.9219 57.3527 57.8242 57.134 57.707V56.8047C57.341 56.9297 57.6027 57.0469 57.9191 57.1562C58.2395 57.2656 58.5676 57.3203 58.9035 57.3203C59.2355 57.3203 59.5109 57.2754 59.7297 57.1855C59.9523 57.0957 60.1184 56.9727 60.2277 56.8164C60.341 56.6562 60.3977 56.4707 60.3977 56.2598C60.3977 56.0918 60.3605 55.9473 60.2863 55.8262C60.216 55.7012 60.0988 55.5801 59.9348 55.4629C59.7746 55.3457 59.5598 55.2109 59.2902 55.0586C58.9895 54.8906 58.7355 54.7207 58.5285 54.5488C58.3215 54.377 58.1633 54.1895 58.0539 53.9863C57.9484 53.7793 57.8957 53.5391 57.8957 53.2656C57.8957 52.8984 57.9855 52.5801 58.1652 52.3105C58.3449 52.041 58.5969 51.832 58.9211 51.6836C59.2492 51.5352 59.632 51.4609 60.0695 51.4609C60.4563 51.4609 60.8137 51.5059 61.1418 51.5957C61.4699 51.6816 61.7531 51.7812 61.9914 51.8945L61.675 52.6738C61.4719 52.5762 61.2395 52.4863 60.9777 52.4043C60.716 52.3223 60.4133 52.2812 60.0695 52.2812C59.7023 52.2812 59.4094 52.3652 59.1906 52.5332C58.9758 52.7012 58.8684 52.9277 58.8684 53.2129C58.8684 53.3613 58.8996 53.4941 58.9621 53.6113C59.0285 53.7285 59.1418 53.8457 59.302 53.9629C59.4621 54.0762 59.6809 54.209 59.9582 54.3613C60.2277 54.5176 60.4699 54.6777 60.6848 54.8418C60.9035 55.002 61.0754 55.1875 61.2004 55.3984C61.3293 55.6055 61.3938 55.8613 61.3938 56.166C61.3938 56.584 61.2941 56.9395 61.0949 57.2324C60.8957 57.5215 60.6105 57.7422 60.2395 57.8945C59.8723 58.043 59.4367 58.1172 58.9328 58.1172ZM65.0113 58.1172C64.5855 58.1172 64.2301 58.0156 63.9449 57.8125C63.6637 57.6055 63.523 57.252 63.523 56.752C63.523 56.6309 63.5309 56.5 63.5465 56.3594C63.5621 56.2148 63.5875 56.0664 63.6227 55.9141L64.3785 52.3223H63.3883L63.482 51.8711L64.5484 51.4609L65.2516 50.1016H65.8316L65.5094 51.5781H67.1617L67.0094 52.3223H65.3629L64.6012 55.9258C64.5738 56.0352 64.5484 56.1523 64.525 56.2773C64.5055 56.4023 64.4957 56.5215 64.4957 56.6348C64.4957 56.8301 64.5465 56.9941 64.648 57.127C64.7496 57.2559 64.9195 57.3203 65.1578 57.3203C65.3062 57.3203 65.4469 57.3066 65.5797 57.2793C65.7164 57.252 65.8609 57.2129 66.0133 57.1621V57.9121C65.9156 57.959 65.7672 58.0039 65.568 58.0469C65.3727 58.0938 65.1871 58.1172 65.0113 58.1172ZM70.0059 58.1172C69.3613 58.1172 68.834 57.9375 68.4238 57.5781C68.0137 57.2188 67.8086 56.6973 67.8086 56.0137C67.8086 55.5762 67.9004 55.1953 68.084 54.8711C68.2676 54.543 68.5312 54.248 68.875 53.9863C69.2227 53.7246 69.6426 53.4785 70.1348 53.248C69.9668 52.9863 69.8223 52.7051 69.7012 52.4043C69.5801 52.1035 69.5195 51.7871 69.5195 51.4551C69.5195 51.0488 69.6094 50.6836 69.7891 50.3594C69.9688 50.0352 70.2285 49.7773 70.5684 49.5859C70.9121 49.3945 71.3262 49.2988 71.8105 49.2988C72.1895 49.2988 72.5195 49.3691 72.8008 49.5098C73.082 49.6465 73.2988 49.8418 73.4512 50.0957C73.6074 50.3496 73.6855 50.6504 73.6855 50.998C73.6855 51.4082 73.5781 51.7578 73.3633 52.0469C73.1484 52.332 72.8633 52.584 72.5078 52.8027C72.1523 53.0215 71.7617 53.2383 71.3359 53.4531L72.9766 55.7441C73.2422 55.5098 73.4727 55.2363 73.668 54.9238C73.8633 54.6074 74.0273 54.2852 74.1602 53.957H75.1387C75.002 54.2852 74.8477 54.5938 74.6758 54.8828C74.5039 55.1719 74.3164 55.4453 74.1133 55.7031C73.9141 55.957 73.6992 56.1973 73.4688 56.4238L74.6406 58H73.4863L72.8008 57.0273C72.418 57.3438 72.0098 57.6055 71.5762 57.8125C71.1465 58.0156 70.623 58.1172 70.0059 58.1172ZM70.1875 57.3086C70.4883 57.3086 70.7617 57.2676 71.0078 57.1855C71.2539 57.1035 71.4844 56.9922 71.6992 56.8516C71.9141 56.7109 72.125 56.5547 72.332 56.3828L70.5449 53.8516C70.2324 54.0078 69.9414 54.1777 69.6719 54.3613C69.4023 54.5449 69.1855 54.7637 69.0215 55.0176C68.8574 55.2715 68.7754 55.582 68.7754 55.9492C68.7754 56.2266 68.8359 56.4688 68.957 56.6758C69.0781 56.8789 69.2441 57.0352 69.4551 57.1445C69.6699 57.2539 69.9141 57.3086 70.1875 57.3086ZM70.9434 52.8438C71.1387 52.7461 71.3398 52.6426 71.5469 52.5332C71.7578 52.4199 71.9531 52.293 72.1328 52.1523C72.3164 52.0117 72.4629 51.8535 72.5723 51.6777C72.6855 51.498 72.7422 51.2949 72.7422 51.0684C72.7422 50.7793 72.6562 50.5449 72.4844 50.3652C72.3125 50.1855 72.0703 50.0957 71.7578 50.0957C71.4883 50.0957 71.2559 50.1504 71.0605 50.2598C70.8652 50.3691 70.7148 50.5254 70.6094 50.7285C70.5039 50.9277 70.4512 51.1699 70.4512 51.4551C70.4512 51.7012 70.4902 51.9375 70.5684 52.1641C70.6504 52.3867 70.7754 52.6133 70.9434 52.8438ZM77.0512 58L76.7699 51.5781H77.725L77.8363 55.123C77.848 55.5488 77.848 55.9316 77.8363 56.2715C77.8285 56.6113 77.8168 56.8945 77.8012 57.1211H77.8422C77.9047 56.957 77.9789 56.7676 78.0648 56.5527C78.1547 56.334 78.2465 56.1152 78.3402 55.8965C78.4379 55.6777 78.5277 55.4805 78.6098 55.3047L80.3734 51.5781H81.4164L81.6508 55.1348C81.6586 55.4277 81.6664 55.7598 81.6742 56.1309C81.682 56.498 81.682 56.8281 81.6742 57.1211H81.7152C81.7816 56.9258 81.8598 56.709 81.9496 56.4707C82.0395 56.2285 82.1391 55.9727 82.2484 55.7031C82.3617 55.4336 82.4789 55.1582 82.6 54.877L84.0883 51.5781H85.1195L82.1371 58H80.977L80.7602 54.3906C80.7484 54.1875 80.7406 53.9902 80.7367 53.7988C80.7367 53.6074 80.7367 53.4102 80.7367 53.207C80.7406 53.0039 80.7426 52.7832 80.7426 52.5449H80.6957C80.6254 52.7363 80.5551 52.916 80.4848 53.084C80.4184 53.252 80.3422 53.4297 80.2563 53.6172C80.1742 53.8047 80.0727 54.0273 79.9516 54.2852L78.1938 58H77.0512ZM88.2391 58.0938C87.7469 58.0938 87.323 57.9941 86.9676 57.7949C86.6121 57.5918 86.3387 57.3066 86.1473 56.9395C85.9598 56.5684 85.866 56.1309 85.866 55.627C85.866 55.2207 85.9109 54.8203 86.0008 54.4258C86.0906 54.0273 86.2234 53.6523 86.3992 53.3008C86.575 52.9453 86.7918 52.6328 87.0496 52.3633C87.3113 52.0898 87.6121 51.877 87.952 51.7246C88.2918 51.5684 88.6707 51.4902 89.0887 51.4902C89.5887 51.4902 90.0145 51.5918 90.366 51.7949C90.7215 51.9941 90.993 52.2793 91.1805 52.6504C91.3719 53.0215 91.4676 53.4609 91.4676 53.9688C91.4676 54.3672 91.4227 54.7637 91.3328 55.1582C91.2469 55.5527 91.116 55.9277 90.9402 56.2832C90.7684 56.6348 90.5516 56.9473 90.2898 57.2207C90.032 57.4902 89.7312 57.7031 89.3875 57.8594C89.0477 58.0156 88.6648 58.0938 88.2391 58.0938ZM88.2977 57.2852C88.5398 57.2852 88.7703 57.2344 88.9891 57.1328C89.2078 57.0312 89.407 56.8848 89.5867 56.6934C89.7664 56.498 89.9207 56.2617 90.0496 55.9844C90.1824 55.7031 90.284 55.3848 90.3543 55.0293C90.4285 54.6738 90.4656 54.2832 90.4656 53.8574C90.4656 53.6035 90.4207 53.3574 90.3309 53.1191C90.241 52.8809 90.0965 52.6855 89.8973 52.5332C89.698 52.377 89.4324 52.2988 89.1004 52.2988C88.827 52.2988 88.573 52.3555 88.3387 52.4688C88.1082 52.582 87.9012 52.7422 87.7176 52.9492C87.534 53.1562 87.3777 53.4004 87.2488 53.6816C87.1238 53.9629 87.0262 54.2715 86.9559 54.6074C86.8895 54.9434 86.8562 55.2969 86.8562 55.668C86.8562 56.1797 86.9812 56.5781 87.2312 56.8633C87.4812 57.1445 87.8367 57.2852 88.2977 57.2852ZM92.9816 58L94.3469 51.5781H95.1438L94.9914 52.8203H95.05C95.2141 52.5977 95.3898 52.3828 95.5773 52.1758C95.7648 51.9648 95.9777 51.793 96.216 51.6602C96.4582 51.5273 96.7355 51.4609 97.048 51.4609C97.1652 51.4609 97.2844 51.4688 97.4055 51.4844C97.5266 51.4961 97.6398 51.5176 97.7453 51.5488L97.5344 52.4219C97.4289 52.3984 97.3254 52.3809 97.2238 52.3691C97.1262 52.3574 97.0246 52.3516 96.9191 52.3516C96.6223 52.3516 96.3469 52.4297 96.093 52.5859C95.8391 52.7383 95.6105 52.9434 95.4074 53.2012C95.2082 53.459 95.0383 53.7461 94.8977 54.0625C94.7609 54.3789 94.6574 54.7012 94.5871 55.0293L93.9602 58H92.9816ZM98.316 58L100.25 48.8828H101.234L100.437 52.6035C100.351 53.0098 100.271 53.3574 100.197 53.6465C100.123 53.9355 100.058 54.1719 100.004 54.3555C99.9488 54.5352 99.9078 54.6738 99.8805 54.7715H99.9039L103.068 51.5781H104.222L101.445 54.3379L103.173 58H102.095L100.707 54.9473L99.775 55.7031L99.3063 58H98.316Z" fill="#979797"/>
    <path d="M9.18231 20.0117C11.7162 20.0117 13.612 20.5632 14.8698 21.666C16.1368 22.7689 16.7702 24.3366 16.7702 26.3691C16.7702 27.2806 16.6381 28.1556 16.3737 28.9941C16.1185 29.8327 15.6947 30.5801 15.1023 31.2363C14.5189 31.8926 13.7396 32.4121 12.7644 32.7949C11.7982 33.1777 10.6042 33.3691 9.18231 33.3691H7.66473V40H2.26434V20.0117H9.18231ZM9.05927 24.373H7.66473V28.9668H8.73114C9.19598 28.9668 9.62893 28.8893 10.03 28.7344C10.431 28.5703 10.7501 28.3105 10.987 27.9551C11.2331 27.5905 11.3562 27.1074 11.3562 26.5059C11.3562 25.877 11.1693 25.3665 10.7956 24.9746C10.4219 24.5736 9.84312 24.373 9.05927 24.373ZM22.1958 40V20.0117H27.5962V35.6387H35.2934V40H22.1958ZM52.9963 40L52.012 36.2539H45.5178L44.5061 40H38.5725L45.094 19.9297H52.2991L58.9026 40H52.9963ZM50.8909 31.8242L50.0295 28.543C49.9384 28.1875 49.8062 27.6816 49.633 27.0254C49.4599 26.36 49.2867 25.6764 49.1135 24.9746C48.9495 24.2637 48.8218 23.6803 48.7307 23.2246C48.6487 23.6803 48.5302 24.2454 48.3752 24.9199C48.2294 25.5853 48.0745 26.2461 47.9104 26.9023C47.7554 27.5586 47.6187 28.1055 47.5002 28.543L46.6389 31.8242H50.8909ZM82.3477 40H75.2656L67.9648 25.918H67.8418C67.8874 26.3464 67.9284 26.8613 67.9648 27.4629C68.0013 28.0645 68.0332 28.6797 68.0605 29.3086C68.0879 29.9284 68.1016 30.4889 68.1016 30.9902V40H63.3164V20.0117H70.3711L77.6445 33.9023H77.7266C77.6992 33.4648 77.6719 32.959 77.6445 32.3848C77.6172 31.8014 77.5898 31.2135 77.5625 30.6211C77.5443 30.0286 77.5352 29.5046 77.5352 29.0488V20.0117H82.3477V40ZM107.939 40H100.857L93.5564 25.918H93.4334C93.4789 26.3464 93.5199 26.8613 93.5564 27.4629C93.5929 28.0645 93.6248 28.6797 93.6521 29.3086C93.6795 29.9284 93.6931 30.4889 93.6931 30.9902V40H88.908V20.0117H95.9627L103.236 33.9023H103.318C103.291 33.4648 103.263 32.959 103.236 32.3848C103.209 31.8014 103.181 31.2135 103.154 30.6211C103.136 30.0286 103.127 29.5046 103.127 29.0488V20.0117H107.939V40ZM126.367 40H114.5V20.0117H126.367V24.3457H119.9V27.4902H125.888V31.8242H119.9V35.5977H126.367V40ZM138.656 20.0117C140.469 20.0117 141.978 20.235 143.181 20.6816C144.384 21.1191 145.286 21.7754 145.888 22.6504C146.499 23.5254 146.804 24.6146 146.804 25.918C146.804 26.7292 146.667 27.4674 146.394 28.1328C146.12 28.7982 145.728 29.3952 145.218 29.9238C144.717 30.4434 144.115 30.8991 143.413 31.291L149.238 40H143.113L138.874 32.7266H137.507V40H132.107V20.0117H138.656ZM138.574 24.0996H137.507V28.666H138.519C139.348 28.666 140.027 28.4837 140.556 28.1191C141.085 27.7546 141.349 27.1029 141.349 26.1641C141.349 25.5169 141.13 25.0111 140.693 24.6465C140.255 24.2819 139.549 24.0996 138.574 24.0996Z" fill="#717171"/>
</svg>
